<svg width="36" height="27" viewBox="0 0 36 27" fill="none" xmlns="http://www.w3.org/2000/svg">
<g id="&#240;&#159;&#166;&#134; icon &#34;double quote serif right&#34;">
<path id="Vector" d="M0.5 6.61331C0.5 3.23702 3.23702 0.5 6.61331 0.5C9.9896 0.5 12.7266 3.23702 12.7266 6.61331V13.2266C12.7266 19.505 8.11569 24.7632 2.11173 25.7768C1.27345 25.9183 0.5 25.2177 0.5 24.2488C0.5 23.3291 1.27202 22.5205 2.30478 22.2605C4.84921 21.6198 6.96684 19.9417 8.18825 17.6963C8.88117 16.4225 8.60198 15.1426 7.80833 14.2149C7.03038 13.3055 5.76161 12.7266 4.40887 12.7266C2.25006 12.7266 0.5 10.9766 0.5 8.81775V6.61331ZM22.5444 6.61331C22.5444 3.23702 25.2814 0.5 28.6577 0.5C32.034 0.5 34.771 3.23702 34.771 6.61331V13.2266C34.771 19.505 30.1601 24.7632 24.1561 25.7768C23.3178 25.9183 22.5444 25.2177 22.5444 24.2488C22.5444 23.3291 23.3164 22.5205 24.3491 22.2605C26.8936 21.6198 29.0112 19.9417 30.2326 17.6963C30.9255 16.4225 30.6464 15.1426 29.8527 14.2149C29.0747 13.3055 27.806 12.7266 26.4532 12.7266C24.2944 12.7266 22.5444 10.9766 22.5444 8.81775V6.61331Z" stroke="#F9BF00"/>
</g>
</svg>
